<mxfile host="app.diagrams.net" modified="2024-10-03T11:36:55.988Z" agent="Mozilla/5.0 (Windows NT 10.0; Win64; x64) AppleWebKit/537.36 (KHTML, like Gecko) Chrome/129.0.0.0 Safari/537.36" etag="anal4GVqdq8t2mHZJIo2" version="24.6.4" type="device">
  <diagram name="Pagina-1" id="lAZnKRvx_4f6jf88Tmhv">
    <mxGraphModel dx="1864" dy="846" grid="1" gridSize="10" guides="1" tooltips="1" connect="1" arrows="1" fold="1" page="1" pageScale="1" pageWidth="827" pageHeight="1169" math="0" shadow="0">
      <root>
        <mxCell id="0" />
        <mxCell id="1" parent="0" />
        <mxCell id="ZjrxR55pJWx2gAHyhsUh-1" value="" style="shape=table;startSize=0;container=1;collapsible=0;childLayout=tableLayout;" vertex="1" parent="1">
          <mxGeometry x="160" y="80" width="400" height="730" as="geometry" />
        </mxCell>
        <mxCell id="ZjrxR55pJWx2gAHyhsUh-95" style="shape=tableRow;horizontal=0;startSize=0;swimlaneHead=0;swimlaneBody=0;strokeColor=inherit;top=0;left=0;bottom=0;right=0;collapsible=0;dropTarget=0;fillColor=none;points=[[0,0.5],[1,0.5]];portConstraint=eastwest;" vertex="1" parent="ZjrxR55pJWx2gAHyhsUh-1">
          <mxGeometry width="400" height="46" as="geometry" />
        </mxCell>
        <mxCell id="ZjrxR55pJWx2gAHyhsUh-96" style="shape=partialRectangle;html=1;whiteSpace=wrap;connectable=0;strokeColor=inherit;overflow=hidden;fillColor=none;top=0;left=0;bottom=0;right=0;pointerEvents=1;" vertex="1" parent="ZjrxR55pJWx2gAHyhsUh-95">
          <mxGeometry width="80" height="46" as="geometry">
            <mxRectangle width="80" height="46" as="alternateBounds" />
          </mxGeometry>
        </mxCell>
        <mxCell id="ZjrxR55pJWx2gAHyhsUh-97" value="Tipo di dato" style="shape=partialRectangle;html=1;whiteSpace=wrap;connectable=0;strokeColor=inherit;overflow=hidden;fillColor=none;top=0;left=0;bottom=0;right=0;pointerEvents=1;" vertex="1" parent="ZjrxR55pJWx2gAHyhsUh-95">
          <mxGeometry x="80" width="80" height="46" as="geometry">
            <mxRectangle width="80" height="46" as="alternateBounds" />
          </mxGeometry>
        </mxCell>
        <mxCell id="ZjrxR55pJWx2gAHyhsUh-107" value="Attributo" style="shape=partialRectangle;html=1;whiteSpace=wrap;connectable=0;strokeColor=inherit;overflow=hidden;fillColor=none;top=0;left=0;bottom=0;right=0;pointerEvents=1;" vertex="1" parent="ZjrxR55pJWx2gAHyhsUh-95">
          <mxGeometry x="160" width="120" height="46" as="geometry">
            <mxRectangle width="120" height="46" as="alternateBounds" />
          </mxGeometry>
        </mxCell>
        <mxCell id="ZjrxR55pJWx2gAHyhsUh-98" value="Descrizionr" style="shape=partialRectangle;html=1;whiteSpace=wrap;connectable=0;strokeColor=inherit;overflow=hidden;fillColor=none;top=0;left=0;bottom=0;right=0;pointerEvents=1;" vertex="1" parent="ZjrxR55pJWx2gAHyhsUh-95">
          <mxGeometry x="280" width="120" height="46" as="geometry">
            <mxRectangle width="120" height="46" as="alternateBounds" />
          </mxGeometry>
        </mxCell>
        <mxCell id="ZjrxR55pJWx2gAHyhsUh-2" value="" style="shape=tableRow;horizontal=0;startSize=0;swimlaneHead=0;swimlaneBody=0;strokeColor=inherit;top=0;left=0;bottom=0;right=0;collapsible=0;dropTarget=0;fillColor=none;points=[[0,0.5],[1,0.5]];portConstraint=eastwest;" vertex="1" parent="ZjrxR55pJWx2gAHyhsUh-1">
          <mxGeometry y="46" width="400" height="47" as="geometry" />
        </mxCell>
        <mxCell id="ZjrxR55pJWx2gAHyhsUh-3" value="ID" style="shape=partialRectangle;html=1;whiteSpace=wrap;connectable=0;strokeColor=inherit;overflow=hidden;fillColor=none;top=0;left=0;bottom=0;right=0;pointerEvents=1;" vertex="1" parent="ZjrxR55pJWx2gAHyhsUh-2">
          <mxGeometry width="80" height="47" as="geometry">
            <mxRectangle width="80" height="47" as="alternateBounds" />
          </mxGeometry>
        </mxCell>
        <mxCell id="ZjrxR55pJWx2gAHyhsUh-4" value="Int" style="shape=partialRectangle;html=1;whiteSpace=wrap;connectable=0;strokeColor=inherit;overflow=hidden;fillColor=none;top=0;left=0;bottom=0;right=0;pointerEvents=1;" vertex="1" parent="ZjrxR55pJWx2gAHyhsUh-2">
          <mxGeometry x="80" width="80" height="47" as="geometry">
            <mxRectangle width="80" height="47" as="alternateBounds" />
          </mxGeometry>
        </mxCell>
        <mxCell id="ZjrxR55pJWx2gAHyhsUh-108" value="not null, unique" style="shape=partialRectangle;html=1;whiteSpace=wrap;connectable=0;strokeColor=inherit;overflow=hidden;fillColor=none;top=0;left=0;bottom=0;right=0;pointerEvents=1;" vertex="1" parent="ZjrxR55pJWx2gAHyhsUh-2">
          <mxGeometry x="160" width="120" height="47" as="geometry">
            <mxRectangle width="120" height="47" as="alternateBounds" />
          </mxGeometry>
        </mxCell>
        <mxCell id="ZjrxR55pJWx2gAHyhsUh-5" value="Identificativo" style="shape=partialRectangle;html=1;whiteSpace=wrap;connectable=0;strokeColor=inherit;overflow=hidden;fillColor=none;top=0;left=0;bottom=0;right=0;pointerEvents=1;" vertex="1" parent="ZjrxR55pJWx2gAHyhsUh-2">
          <mxGeometry x="280" width="120" height="47" as="geometry">
            <mxRectangle width="120" height="47" as="alternateBounds" />
          </mxGeometry>
        </mxCell>
        <mxCell id="ZjrxR55pJWx2gAHyhsUh-9" value="" style="shape=tableRow;horizontal=0;startSize=0;swimlaneHead=0;swimlaneBody=0;strokeColor=inherit;top=0;left=0;bottom=0;right=0;collapsible=0;dropTarget=0;fillColor=none;points=[[0,0.5],[1,0.5]];portConstraint=eastwest;" vertex="1" parent="ZjrxR55pJWx2gAHyhsUh-1">
          <mxGeometry y="93" width="400" height="45" as="geometry" />
        </mxCell>
        <mxCell id="ZjrxR55pJWx2gAHyhsUh-10" value="Marca" style="shape=partialRectangle;html=1;whiteSpace=wrap;connectable=0;strokeColor=inherit;overflow=hidden;fillColor=none;top=0;left=0;bottom=0;right=0;pointerEvents=1;" vertex="1" parent="ZjrxR55pJWx2gAHyhsUh-9">
          <mxGeometry width="80" height="45" as="geometry">
            <mxRectangle width="80" height="45" as="alternateBounds" />
          </mxGeometry>
        </mxCell>
        <mxCell id="ZjrxR55pJWx2gAHyhsUh-11" value="VARCHAR(20)" style="shape=partialRectangle;html=1;whiteSpace=wrap;connectable=0;strokeColor=inherit;overflow=hidden;fillColor=none;top=0;left=0;bottom=0;right=0;pointerEvents=1;" vertex="1" parent="ZjrxR55pJWx2gAHyhsUh-9">
          <mxGeometry x="80" width="80" height="45" as="geometry">
            <mxRectangle width="80" height="45" as="alternateBounds" />
          </mxGeometry>
        </mxCell>
        <mxCell id="ZjrxR55pJWx2gAHyhsUh-109" value="not null" style="shape=partialRectangle;html=1;whiteSpace=wrap;connectable=0;strokeColor=inherit;overflow=hidden;fillColor=none;top=0;left=0;bottom=0;right=0;pointerEvents=1;" vertex="1" parent="ZjrxR55pJWx2gAHyhsUh-9">
          <mxGeometry x="160" width="120" height="45" as="geometry">
            <mxRectangle width="120" height="45" as="alternateBounds" />
          </mxGeometry>
        </mxCell>
        <mxCell id="ZjrxR55pJWx2gAHyhsUh-12" value="Marca Auto" style="shape=partialRectangle;html=1;whiteSpace=wrap;connectable=0;strokeColor=inherit;overflow=hidden;fillColor=none;top=0;left=0;bottom=0;right=0;pointerEvents=1;" vertex="1" parent="ZjrxR55pJWx2gAHyhsUh-9">
          <mxGeometry x="280" width="120" height="45" as="geometry">
            <mxRectangle width="120" height="45" as="alternateBounds" />
          </mxGeometry>
        </mxCell>
        <mxCell id="ZjrxR55pJWx2gAHyhsUh-16" value="" style="shape=tableRow;horizontal=0;startSize=0;swimlaneHead=0;swimlaneBody=0;strokeColor=inherit;top=0;left=0;bottom=0;right=0;collapsible=0;dropTarget=0;fillColor=none;points=[[0,0.5],[1,0.5]];portConstraint=eastwest;" vertex="1" parent="ZjrxR55pJWx2gAHyhsUh-1">
          <mxGeometry y="138" width="400" height="47" as="geometry" />
        </mxCell>
        <mxCell id="ZjrxR55pJWx2gAHyhsUh-17" value="Modello" style="shape=partialRectangle;html=1;whiteSpace=wrap;connectable=0;strokeColor=inherit;overflow=hidden;fillColor=none;top=0;left=0;bottom=0;right=0;pointerEvents=1;" vertex="1" parent="ZjrxR55pJWx2gAHyhsUh-16">
          <mxGeometry width="80" height="47" as="geometry">
            <mxRectangle width="80" height="47" as="alternateBounds" />
          </mxGeometry>
        </mxCell>
        <mxCell id="ZjrxR55pJWx2gAHyhsUh-18" value="VARCHAR(20)" style="shape=partialRectangle;html=1;whiteSpace=wrap;connectable=0;strokeColor=inherit;overflow=hidden;fillColor=none;top=0;left=0;bottom=0;right=0;pointerEvents=1;" vertex="1" parent="ZjrxR55pJWx2gAHyhsUh-16">
          <mxGeometry x="80" width="80" height="47" as="geometry">
            <mxRectangle width="80" height="47" as="alternateBounds" />
          </mxGeometry>
        </mxCell>
        <mxCell id="ZjrxR55pJWx2gAHyhsUh-110" value="&#xa;&lt;span style=&quot;color: rgb(0, 0, 0); font-family: Helvetica; font-size: 12px; font-style: normal; font-variant-ligatures: normal; font-variant-caps: normal; font-weight: 400; letter-spacing: normal; orphans: 2; text-align: center; text-indent: 0px; text-transform: none; widows: 2; word-spacing: 0px; -webkit-text-stroke-width: 0px; white-space: normal; background-color: rgb(251, 251, 251); text-decoration-thickness: initial; text-decoration-style: initial; text-decoration-color: initial; display: inline !important; float: none;&quot;&gt;not null&lt;/span&gt;&#xa;&#xa;" style="shape=partialRectangle;html=1;whiteSpace=wrap;connectable=0;strokeColor=inherit;overflow=hidden;fillColor=none;top=0;left=0;bottom=0;right=0;pointerEvents=1;" vertex="1" parent="ZjrxR55pJWx2gAHyhsUh-16">
          <mxGeometry x="160" width="120" height="47" as="geometry">
            <mxRectangle width="120" height="47" as="alternateBounds" />
          </mxGeometry>
        </mxCell>
        <mxCell id="ZjrxR55pJWx2gAHyhsUh-19" value="Modello Auto" style="shape=partialRectangle;html=1;whiteSpace=wrap;connectable=0;strokeColor=inherit;overflow=hidden;fillColor=none;top=0;left=0;bottom=0;right=0;pointerEvents=1;" vertex="1" parent="ZjrxR55pJWx2gAHyhsUh-16">
          <mxGeometry x="280" width="120" height="47" as="geometry">
            <mxRectangle width="120" height="47" as="alternateBounds" />
          </mxGeometry>
        </mxCell>
        <mxCell id="ZjrxR55pJWx2gAHyhsUh-23" value="" style="shape=tableRow;horizontal=0;startSize=0;swimlaneHead=0;swimlaneBody=0;strokeColor=inherit;top=0;left=0;bottom=0;right=0;collapsible=0;dropTarget=0;fillColor=none;points=[[0,0.5],[1,0.5]];portConstraint=eastwest;" vertex="1" parent="ZjrxR55pJWx2gAHyhsUh-1">
          <mxGeometry y="185" width="400" height="47" as="geometry" />
        </mxCell>
        <mxCell id="ZjrxR55pJWx2gAHyhsUh-24" value="Cilindrata" style="shape=partialRectangle;html=1;whiteSpace=wrap;connectable=0;strokeColor=inherit;overflow=hidden;fillColor=none;top=0;left=0;bottom=0;right=0;pointerEvents=1;" vertex="1" parent="ZjrxR55pJWx2gAHyhsUh-23">
          <mxGeometry width="80" height="47" as="geometry">
            <mxRectangle width="80" height="47" as="alternateBounds" />
          </mxGeometry>
        </mxCell>
        <mxCell id="ZjrxR55pJWx2gAHyhsUh-25" value="Int" style="shape=partialRectangle;html=1;whiteSpace=wrap;connectable=0;strokeColor=inherit;overflow=hidden;fillColor=none;top=0;left=0;bottom=0;right=0;pointerEvents=1;" vertex="1" parent="ZjrxR55pJWx2gAHyhsUh-23">
          <mxGeometry x="80" width="80" height="47" as="geometry">
            <mxRectangle width="80" height="47" as="alternateBounds" />
          </mxGeometry>
        </mxCell>
        <mxCell id="ZjrxR55pJWx2gAHyhsUh-111" value="&#xa;&lt;span style=&quot;color: rgb(0, 0, 0); font-family: Helvetica; font-size: 12px; font-style: normal; font-variant-ligatures: normal; font-variant-caps: normal; font-weight: 400; letter-spacing: normal; orphans: 2; text-align: center; text-indent: 0px; text-transform: none; widows: 2; word-spacing: 0px; -webkit-text-stroke-width: 0px; white-space: normal; background-color: rgb(251, 251, 251); text-decoration-thickness: initial; text-decoration-style: initial; text-decoration-color: initial; display: inline !important; float: none;&quot;&gt;not null&lt;/span&gt;&#xa;&#xa;" style="shape=partialRectangle;html=1;whiteSpace=wrap;connectable=0;strokeColor=inherit;overflow=hidden;fillColor=none;top=0;left=0;bottom=0;right=0;pointerEvents=1;" vertex="1" parent="ZjrxR55pJWx2gAHyhsUh-23">
          <mxGeometry x="160" width="120" height="47" as="geometry">
            <mxRectangle width="120" height="47" as="alternateBounds" />
          </mxGeometry>
        </mxCell>
        <mxCell id="ZjrxR55pJWx2gAHyhsUh-26" value="Cilindrata Motore" style="shape=partialRectangle;html=1;whiteSpace=wrap;connectable=0;strokeColor=inherit;overflow=hidden;fillColor=none;top=0;left=0;bottom=0;right=0;pointerEvents=1;" vertex="1" parent="ZjrxR55pJWx2gAHyhsUh-23">
          <mxGeometry x="280" width="120" height="47" as="geometry">
            <mxRectangle width="120" height="47" as="alternateBounds" />
          </mxGeometry>
        </mxCell>
        <mxCell id="ZjrxR55pJWx2gAHyhsUh-103" style="shape=tableRow;horizontal=0;startSize=0;swimlaneHead=0;swimlaneBody=0;strokeColor=inherit;top=0;left=0;bottom=0;right=0;collapsible=0;dropTarget=0;fillColor=none;points=[[0,0.5],[1,0.5]];portConstraint=eastwest;" vertex="1" parent="ZjrxR55pJWx2gAHyhsUh-1">
          <mxGeometry y="232" width="400" height="47" as="geometry" />
        </mxCell>
        <mxCell id="ZjrxR55pJWx2gAHyhsUh-104" value="Tipo emissione" style="shape=partialRectangle;html=1;whiteSpace=wrap;connectable=0;strokeColor=inherit;overflow=hidden;fillColor=none;top=0;left=0;bottom=0;right=0;pointerEvents=1;" vertex="1" parent="ZjrxR55pJWx2gAHyhsUh-103">
          <mxGeometry width="80" height="47" as="geometry">
            <mxRectangle width="80" height="47" as="alternateBounds" />
          </mxGeometry>
        </mxCell>
        <mxCell id="ZjrxR55pJWx2gAHyhsUh-105" value="VARCHAR(20)" style="shape=partialRectangle;html=1;whiteSpace=wrap;connectable=0;strokeColor=inherit;overflow=hidden;fillColor=none;top=0;left=0;bottom=0;right=0;pointerEvents=1;" vertex="1" parent="ZjrxR55pJWx2gAHyhsUh-103">
          <mxGeometry x="80" width="80" height="47" as="geometry">
            <mxRectangle width="80" height="47" as="alternateBounds" />
          </mxGeometry>
        </mxCell>
        <mxCell id="ZjrxR55pJWx2gAHyhsUh-112" value="&#xa;&lt;span style=&quot;color: rgb(0, 0, 0); font-family: Helvetica; font-size: 12px; font-style: normal; font-variant-ligatures: normal; font-variant-caps: normal; font-weight: 400; letter-spacing: normal; orphans: 2; text-align: center; text-indent: 0px; text-transform: none; widows: 2; word-spacing: 0px; -webkit-text-stroke-width: 0px; white-space: normal; background-color: rgb(251, 251, 251); text-decoration-thickness: initial; text-decoration-style: initial; text-decoration-color: initial; display: inline !important; float: none;&quot;&gt;not null&lt;/span&gt;&#xa;&#xa;" style="shape=partialRectangle;html=1;whiteSpace=wrap;connectable=0;strokeColor=inherit;overflow=hidden;fillColor=none;top=0;left=0;bottom=0;right=0;pointerEvents=1;" vertex="1" parent="ZjrxR55pJWx2gAHyhsUh-103">
          <mxGeometry x="160" width="120" height="47" as="geometry">
            <mxRectangle width="120" height="47" as="alternateBounds" />
          </mxGeometry>
        </mxCell>
        <mxCell id="ZjrxR55pJWx2gAHyhsUh-106" value="Tipo Classe Emissione" style="shape=partialRectangle;html=1;whiteSpace=wrap;connectable=0;strokeColor=inherit;overflow=hidden;fillColor=none;top=0;left=0;bottom=0;right=0;pointerEvents=1;" vertex="1" parent="ZjrxR55pJWx2gAHyhsUh-103">
          <mxGeometry x="280" width="120" height="47" as="geometry">
            <mxRectangle width="120" height="47" as="alternateBounds" />
          </mxGeometry>
        </mxCell>
        <mxCell id="ZjrxR55pJWx2gAHyhsUh-30" value="" style="shape=tableRow;horizontal=0;startSize=0;swimlaneHead=0;swimlaneBody=0;strokeColor=inherit;top=0;left=0;bottom=0;right=0;collapsible=0;dropTarget=0;fillColor=none;points=[[0,0.5],[1,0.5]];portConstraint=eastwest;" vertex="1" parent="ZjrxR55pJWx2gAHyhsUh-1">
          <mxGeometry y="279" width="400" height="45" as="geometry" />
        </mxCell>
        <mxCell id="ZjrxR55pJWx2gAHyhsUh-31" value="n. Porte" style="shape=partialRectangle;html=1;whiteSpace=wrap;connectable=0;strokeColor=inherit;overflow=hidden;fillColor=none;top=0;left=0;bottom=0;right=0;pointerEvents=1;" vertex="1" parent="ZjrxR55pJWx2gAHyhsUh-30">
          <mxGeometry width="80" height="45" as="geometry">
            <mxRectangle width="80" height="45" as="alternateBounds" />
          </mxGeometry>
        </mxCell>
        <mxCell id="ZjrxR55pJWx2gAHyhsUh-32" value="Int" style="shape=partialRectangle;html=1;whiteSpace=wrap;connectable=0;strokeColor=inherit;overflow=hidden;fillColor=none;top=0;left=0;bottom=0;right=0;pointerEvents=1;" vertex="1" parent="ZjrxR55pJWx2gAHyhsUh-30">
          <mxGeometry x="80" width="80" height="45" as="geometry">
            <mxRectangle width="80" height="45" as="alternateBounds" />
          </mxGeometry>
        </mxCell>
        <mxCell id="ZjrxR55pJWx2gAHyhsUh-113" value="null" style="shape=partialRectangle;html=1;whiteSpace=wrap;connectable=0;strokeColor=inherit;overflow=hidden;fillColor=none;top=0;left=0;bottom=0;right=0;pointerEvents=1;" vertex="1" parent="ZjrxR55pJWx2gAHyhsUh-30">
          <mxGeometry x="160" width="120" height="45" as="geometry">
            <mxRectangle width="120" height="45" as="alternateBounds" />
          </mxGeometry>
        </mxCell>
        <mxCell id="ZjrxR55pJWx2gAHyhsUh-33" value="Numero Porte Auto" style="shape=partialRectangle;html=1;whiteSpace=wrap;connectable=0;strokeColor=inherit;overflow=hidden;fillColor=none;top=0;left=0;bottom=0;right=0;pointerEvents=1;" vertex="1" parent="ZjrxR55pJWx2gAHyhsUh-30">
          <mxGeometry x="280" width="120" height="45" as="geometry">
            <mxRectangle width="120" height="45" as="alternateBounds" />
          </mxGeometry>
        </mxCell>
        <mxCell id="ZjrxR55pJWx2gAHyhsUh-37" value="" style="shape=tableRow;horizontal=0;startSize=0;swimlaneHead=0;swimlaneBody=0;strokeColor=inherit;top=0;left=0;bottom=0;right=0;collapsible=0;dropTarget=0;fillColor=none;points=[[0,0.5],[1,0.5]];portConstraint=eastwest;" vertex="1" parent="ZjrxR55pJWx2gAHyhsUh-1">
          <mxGeometry y="324" width="400" height="46" as="geometry" />
        </mxCell>
        <mxCell id="ZjrxR55pJWx2gAHyhsUh-38" value="n. Posti" style="shape=partialRectangle;html=1;whiteSpace=wrap;connectable=0;strokeColor=inherit;overflow=hidden;fillColor=none;top=0;left=0;bottom=0;right=0;pointerEvents=1;" vertex="1" parent="ZjrxR55pJWx2gAHyhsUh-37">
          <mxGeometry width="80" height="46" as="geometry">
            <mxRectangle width="80" height="46" as="alternateBounds" />
          </mxGeometry>
        </mxCell>
        <mxCell id="ZjrxR55pJWx2gAHyhsUh-39" value="Int" style="shape=partialRectangle;html=1;whiteSpace=wrap;connectable=0;strokeColor=inherit;overflow=hidden;fillColor=none;top=0;left=0;bottom=0;right=0;pointerEvents=1;" vertex="1" parent="ZjrxR55pJWx2gAHyhsUh-37">
          <mxGeometry x="80" width="80" height="46" as="geometry">
            <mxRectangle width="80" height="46" as="alternateBounds" />
          </mxGeometry>
        </mxCell>
        <mxCell id="ZjrxR55pJWx2gAHyhsUh-114" value="null" style="shape=partialRectangle;html=1;whiteSpace=wrap;connectable=0;strokeColor=inherit;overflow=hidden;fillColor=none;top=0;left=0;bottom=0;right=0;pointerEvents=1;" vertex="1" parent="ZjrxR55pJWx2gAHyhsUh-37">
          <mxGeometry x="160" width="120" height="46" as="geometry">
            <mxRectangle width="120" height="46" as="alternateBounds" />
          </mxGeometry>
        </mxCell>
        <mxCell id="ZjrxR55pJWx2gAHyhsUh-40" value="&lt;br&gt;&lt;span style=&quot;color: rgb(0, 0, 0); font-family: Helvetica; font-size: 12px; font-style: normal; font-variant-ligatures: normal; font-variant-caps: normal; font-weight: 400; letter-spacing: normal; orphans: 2; text-align: center; text-indent: 0px; text-transform: none; widows: 2; word-spacing: 0px; -webkit-text-stroke-width: 0px; white-space: normal; background-color: rgb(251, 251, 251); text-decoration-thickness: initial; text-decoration-style: initial; text-decoration-color: initial; display: inline !important; float: none;&quot;&gt;Numero Posti Auto&lt;/span&gt;&lt;div&gt;&lt;br/&gt;&lt;/div&gt;" style="shape=partialRectangle;html=1;whiteSpace=wrap;connectable=0;strokeColor=inherit;overflow=hidden;fillColor=none;top=0;left=0;bottom=0;right=0;pointerEvents=1;" vertex="1" parent="ZjrxR55pJWx2gAHyhsUh-37">
          <mxGeometry x="280" width="120" height="46" as="geometry">
            <mxRectangle width="120" height="46" as="alternateBounds" />
          </mxGeometry>
        </mxCell>
        <mxCell id="ZjrxR55pJWx2gAHyhsUh-44" value="" style="shape=tableRow;horizontal=0;startSize=0;swimlaneHead=0;swimlaneBody=0;strokeColor=inherit;top=0;left=0;bottom=0;right=0;collapsible=0;dropTarget=0;fillColor=none;points=[[0,0.5],[1,0.5]];portConstraint=eastwest;" vertex="1" parent="ZjrxR55pJWx2gAHyhsUh-1">
          <mxGeometry y="370" width="400" height="46" as="geometry" />
        </mxCell>
        <mxCell id="ZjrxR55pJWx2gAHyhsUh-45" value="Carburante" style="shape=partialRectangle;html=1;whiteSpace=wrap;connectable=0;strokeColor=inherit;overflow=hidden;fillColor=none;top=0;left=0;bottom=0;right=0;pointerEvents=1;" vertex="1" parent="ZjrxR55pJWx2gAHyhsUh-44">
          <mxGeometry width="80" height="46" as="geometry">
            <mxRectangle width="80" height="46" as="alternateBounds" />
          </mxGeometry>
        </mxCell>
        <mxCell id="ZjrxR55pJWx2gAHyhsUh-46" value="VARCHAR(40)" style="shape=partialRectangle;html=1;whiteSpace=wrap;connectable=0;strokeColor=inherit;overflow=hidden;fillColor=none;top=0;left=0;bottom=0;right=0;pointerEvents=1;" vertex="1" parent="ZjrxR55pJWx2gAHyhsUh-44">
          <mxGeometry x="80" width="80" height="46" as="geometry">
            <mxRectangle width="80" height="46" as="alternateBounds" />
          </mxGeometry>
        </mxCell>
        <mxCell id="ZjrxR55pJWx2gAHyhsUh-115" value="&#xa;&lt;span style=&quot;forced-color-adjust: none; color: rgb(0, 0, 0); font-family: Helvetica; font-size: 12px; font-style: normal; font-variant-ligatures: normal; font-variant-caps: normal; font-weight: 400; letter-spacing: normal; orphans: 2; text-align: center; text-indent: 0px; text-transform: none; widows: 2; word-spacing: 0px; -webkit-text-stroke-width: 0px; white-space: normal; text-decoration-thickness: initial; text-decoration-style: initial; text-decoration-color: initial; background-color: rgb(251, 251, 251); float: none; display: inline !important;&quot;&gt;not null&lt;/span&gt;&lt;br style=&quot;forced-color-adjust: none; color: rgb(0, 0, 0); font-family: Helvetica; font-size: 12px; font-style: normal; font-variant-ligatures: normal; font-variant-caps: normal; font-weight: 400; letter-spacing: normal; orphans: 2; text-align: center; text-indent: 0px; text-transform: none; widows: 2; word-spacing: 0px; -webkit-text-stroke-width: 0px; white-space: normal; background-color: rgb(251, 251, 251); text-decoration-thickness: initial; text-decoration-style: initial; text-decoration-color: initial;&quot;&gt;&#xa;&#xa;" style="shape=partialRectangle;html=1;whiteSpace=wrap;connectable=0;strokeColor=inherit;overflow=hidden;fillColor=none;top=0;left=0;bottom=0;right=0;pointerEvents=1;" vertex="1" parent="ZjrxR55pJWx2gAHyhsUh-44">
          <mxGeometry x="160" width="120" height="46" as="geometry">
            <mxRectangle width="120" height="46" as="alternateBounds" />
          </mxGeometry>
        </mxCell>
        <mxCell id="ZjrxR55pJWx2gAHyhsUh-47" value="Tipo Carburante" style="shape=partialRectangle;html=1;whiteSpace=wrap;connectable=0;strokeColor=inherit;overflow=hidden;fillColor=none;top=0;left=0;bottom=0;right=0;pointerEvents=1;" vertex="1" parent="ZjrxR55pJWx2gAHyhsUh-44">
          <mxGeometry x="280" width="120" height="46" as="geometry">
            <mxRectangle width="120" height="46" as="alternateBounds" />
          </mxGeometry>
        </mxCell>
        <mxCell id="ZjrxR55pJWx2gAHyhsUh-51" value="" style="shape=tableRow;horizontal=0;startSize=0;swimlaneHead=0;swimlaneBody=0;strokeColor=inherit;top=0;left=0;bottom=0;right=0;collapsible=0;dropTarget=0;fillColor=none;points=[[0,0.5],[1,0.5]];portConstraint=eastwest;" vertex="1" parent="ZjrxR55pJWx2gAHyhsUh-1">
          <mxGeometry y="416" width="400" height="46" as="geometry" />
        </mxCell>
        <mxCell id="ZjrxR55pJWx2gAHyhsUh-52" value="Km" style="shape=partialRectangle;html=1;whiteSpace=wrap;connectable=0;strokeColor=inherit;overflow=hidden;fillColor=none;top=0;left=0;bottom=0;right=0;pointerEvents=1;" vertex="1" parent="ZjrxR55pJWx2gAHyhsUh-51">
          <mxGeometry width="80" height="46" as="geometry">
            <mxRectangle width="80" height="46" as="alternateBounds" />
          </mxGeometry>
        </mxCell>
        <mxCell id="ZjrxR55pJWx2gAHyhsUh-53" value="Int" style="shape=partialRectangle;html=1;whiteSpace=wrap;connectable=0;strokeColor=inherit;overflow=hidden;fillColor=none;top=0;left=0;bottom=0;right=0;pointerEvents=1;" vertex="1" parent="ZjrxR55pJWx2gAHyhsUh-51">
          <mxGeometry x="80" width="80" height="46" as="geometry">
            <mxRectangle width="80" height="46" as="alternateBounds" />
          </mxGeometry>
        </mxCell>
        <mxCell id="ZjrxR55pJWx2gAHyhsUh-116" value="null" style="shape=partialRectangle;html=1;whiteSpace=wrap;connectable=0;strokeColor=inherit;overflow=hidden;fillColor=none;top=0;left=0;bottom=0;right=0;pointerEvents=1;" vertex="1" parent="ZjrxR55pJWx2gAHyhsUh-51">
          <mxGeometry x="160" width="120" height="46" as="geometry">
            <mxRectangle width="120" height="46" as="alternateBounds" />
          </mxGeometry>
        </mxCell>
        <mxCell id="ZjrxR55pJWx2gAHyhsUh-54" value="n. Km Percorsi" style="shape=partialRectangle;html=1;whiteSpace=wrap;connectable=0;strokeColor=inherit;overflow=hidden;fillColor=none;top=0;left=0;bottom=0;right=0;pointerEvents=1;" vertex="1" parent="ZjrxR55pJWx2gAHyhsUh-51">
          <mxGeometry x="280" width="120" height="46" as="geometry">
            <mxRectangle width="120" height="46" as="alternateBounds" />
          </mxGeometry>
        </mxCell>
        <mxCell id="ZjrxR55pJWx2gAHyhsUh-58" value="" style="shape=tableRow;horizontal=0;startSize=0;swimlaneHead=0;swimlaneBody=0;strokeColor=inherit;top=0;left=0;bottom=0;right=0;collapsible=0;dropTarget=0;fillColor=none;points=[[0,0.5],[1,0.5]];portConstraint=eastwest;" vertex="1" parent="ZjrxR55pJWx2gAHyhsUh-1">
          <mxGeometry y="462" width="400" height="47" as="geometry" />
        </mxCell>
        <mxCell id="ZjrxR55pJWx2gAHyhsUh-59" value="Cambio" style="shape=partialRectangle;html=1;whiteSpace=wrap;connectable=0;strokeColor=inherit;overflow=hidden;fillColor=none;top=0;left=0;bottom=0;right=0;pointerEvents=1;" vertex="1" parent="ZjrxR55pJWx2gAHyhsUh-58">
          <mxGeometry width="80" height="47" as="geometry">
            <mxRectangle width="80" height="47" as="alternateBounds" />
          </mxGeometry>
        </mxCell>
        <mxCell id="ZjrxR55pJWx2gAHyhsUh-60" value="VARCHAR(40)" style="shape=partialRectangle;html=1;whiteSpace=wrap;connectable=0;strokeColor=inherit;overflow=hidden;fillColor=none;top=0;left=0;bottom=0;right=0;pointerEvents=1;" vertex="1" parent="ZjrxR55pJWx2gAHyhsUh-58">
          <mxGeometry x="80" width="80" height="47" as="geometry">
            <mxRectangle width="80" height="47" as="alternateBounds" />
          </mxGeometry>
        </mxCell>
        <mxCell id="ZjrxR55pJWx2gAHyhsUh-117" value="null" style="shape=partialRectangle;html=1;whiteSpace=wrap;connectable=0;strokeColor=inherit;overflow=hidden;fillColor=none;top=0;left=0;bottom=0;right=0;pointerEvents=1;" vertex="1" parent="ZjrxR55pJWx2gAHyhsUh-58">
          <mxGeometry x="160" width="120" height="47" as="geometry">
            <mxRectangle width="120" height="47" as="alternateBounds" />
          </mxGeometry>
        </mxCell>
        <mxCell id="ZjrxR55pJWx2gAHyhsUh-61" value="Tipo Trasmissione" style="shape=partialRectangle;html=1;whiteSpace=wrap;connectable=0;strokeColor=inherit;overflow=hidden;fillColor=none;top=0;left=0;bottom=0;right=0;pointerEvents=1;" vertex="1" parent="ZjrxR55pJWx2gAHyhsUh-58">
          <mxGeometry x="280" width="120" height="47" as="geometry">
            <mxRectangle width="120" height="47" as="alternateBounds" />
          </mxGeometry>
        </mxCell>
        <mxCell id="ZjrxR55pJWx2gAHyhsUh-65" value="" style="shape=tableRow;horizontal=0;startSize=0;swimlaneHead=0;swimlaneBody=0;strokeColor=inherit;top=0;left=0;bottom=0;right=0;collapsible=0;dropTarget=0;fillColor=none;points=[[0,0.5],[1,0.5]];portConstraint=eastwest;" vertex="1" parent="ZjrxR55pJWx2gAHyhsUh-1">
          <mxGeometry y="509" width="400" height="46" as="geometry" />
        </mxCell>
        <mxCell id="ZjrxR55pJWx2gAHyhsUh-66" value="Colore" style="shape=partialRectangle;html=1;whiteSpace=wrap;connectable=0;strokeColor=inherit;overflow=hidden;fillColor=none;top=0;left=0;bottom=0;right=0;pointerEvents=1;" vertex="1" parent="ZjrxR55pJWx2gAHyhsUh-65">
          <mxGeometry width="80" height="46" as="geometry">
            <mxRectangle width="80" height="46" as="alternateBounds" />
          </mxGeometry>
        </mxCell>
        <mxCell id="ZjrxR55pJWx2gAHyhsUh-67" value="VARCHAR(20)" style="shape=partialRectangle;html=1;whiteSpace=wrap;connectable=0;strokeColor=inherit;overflow=hidden;fillColor=none;top=0;left=0;bottom=0;right=0;pointerEvents=1;" vertex="1" parent="ZjrxR55pJWx2gAHyhsUh-65">
          <mxGeometry x="80" width="80" height="46" as="geometry">
            <mxRectangle width="80" height="46" as="alternateBounds" />
          </mxGeometry>
        </mxCell>
        <mxCell id="ZjrxR55pJWx2gAHyhsUh-118" value="null" style="shape=partialRectangle;html=1;whiteSpace=wrap;connectable=0;strokeColor=inherit;overflow=hidden;fillColor=none;top=0;left=0;bottom=0;right=0;pointerEvents=1;" vertex="1" parent="ZjrxR55pJWx2gAHyhsUh-65">
          <mxGeometry x="160" width="120" height="46" as="geometry">
            <mxRectangle width="120" height="46" as="alternateBounds" />
          </mxGeometry>
        </mxCell>
        <mxCell id="ZjrxR55pJWx2gAHyhsUh-68" value="Colore Auto" style="shape=partialRectangle;html=1;whiteSpace=wrap;connectable=0;strokeColor=inherit;overflow=hidden;fillColor=none;top=0;left=0;bottom=0;right=0;pointerEvents=1;" vertex="1" parent="ZjrxR55pJWx2gAHyhsUh-65">
          <mxGeometry x="280" width="120" height="46" as="geometry">
            <mxRectangle width="120" height="46" as="alternateBounds" />
          </mxGeometry>
        </mxCell>
        <mxCell id="ZjrxR55pJWx2gAHyhsUh-72" value="" style="shape=tableRow;horizontal=0;startSize=0;swimlaneHead=0;swimlaneBody=0;strokeColor=inherit;top=0;left=0;bottom=0;right=0;collapsible=0;dropTarget=0;fillColor=none;points=[[0,0.5],[1,0.5]];portConstraint=eastwest;" vertex="1" parent="ZjrxR55pJWx2gAHyhsUh-1">
          <mxGeometry y="555" width="400" height="46" as="geometry" />
        </mxCell>
        <mxCell id="ZjrxR55pJWx2gAHyhsUh-73" value="Luogo Origine" style="shape=partialRectangle;html=1;whiteSpace=wrap;connectable=0;strokeColor=inherit;overflow=hidden;fillColor=none;top=0;left=0;bottom=0;right=0;pointerEvents=1;" vertex="1" parent="ZjrxR55pJWx2gAHyhsUh-72">
          <mxGeometry width="80" height="46" as="geometry">
            <mxRectangle width="80" height="46" as="alternateBounds" />
          </mxGeometry>
        </mxCell>
        <mxCell id="ZjrxR55pJWx2gAHyhsUh-74" value="VATRCHAR(20)" style="shape=partialRectangle;html=1;whiteSpace=wrap;connectable=0;strokeColor=inherit;overflow=hidden;fillColor=none;top=0;left=0;bottom=0;right=0;pointerEvents=1;" vertex="1" parent="ZjrxR55pJWx2gAHyhsUh-72">
          <mxGeometry x="80" width="80" height="46" as="geometry">
            <mxRectangle width="80" height="46" as="alternateBounds" />
          </mxGeometry>
        </mxCell>
        <mxCell id="ZjrxR55pJWx2gAHyhsUh-119" value="null" style="shape=partialRectangle;html=1;whiteSpace=wrap;connectable=0;strokeColor=inherit;overflow=hidden;fillColor=none;top=0;left=0;bottom=0;right=0;pointerEvents=1;" vertex="1" parent="ZjrxR55pJWx2gAHyhsUh-72">
          <mxGeometry x="160" width="120" height="46" as="geometry">
            <mxRectangle width="120" height="46" as="alternateBounds" />
          </mxGeometry>
        </mxCell>
        <mxCell id="ZjrxR55pJWx2gAHyhsUh-75" value="Luogo di Origine" style="shape=partialRectangle;html=1;whiteSpace=wrap;connectable=0;strokeColor=inherit;overflow=hidden;fillColor=none;top=0;left=0;bottom=0;right=0;pointerEvents=1;" vertex="1" parent="ZjrxR55pJWx2gAHyhsUh-72">
          <mxGeometry x="280" width="120" height="46" as="geometry">
            <mxRectangle width="120" height="46" as="alternateBounds" />
          </mxGeometry>
        </mxCell>
        <mxCell id="ZjrxR55pJWx2gAHyhsUh-79" value="" style="shape=tableRow;horizontal=0;startSize=0;swimlaneHead=0;swimlaneBody=0;strokeColor=inherit;top=0;left=0;bottom=0;right=0;collapsible=0;dropTarget=0;fillColor=none;points=[[0,0.5],[1,0.5]];portConstraint=eastwest;" vertex="1" parent="ZjrxR55pJWx2gAHyhsUh-1">
          <mxGeometry y="601" width="400" height="43" as="geometry" />
        </mxCell>
        <mxCell id="ZjrxR55pJWx2gAHyhsUh-80" value="Anno Immatricolazione" style="shape=partialRectangle;html=1;whiteSpace=wrap;connectable=0;strokeColor=inherit;overflow=hidden;fillColor=none;top=0;left=0;bottom=0;right=0;pointerEvents=1;" vertex="1" parent="ZjrxR55pJWx2gAHyhsUh-79">
          <mxGeometry width="80" height="43" as="geometry">
            <mxRectangle width="80" height="43" as="alternateBounds" />
          </mxGeometry>
        </mxCell>
        <mxCell id="ZjrxR55pJWx2gAHyhsUh-81" value="Year" style="shape=partialRectangle;html=1;whiteSpace=wrap;connectable=0;strokeColor=inherit;overflow=hidden;fillColor=none;top=0;left=0;bottom=0;right=0;pointerEvents=1;" vertex="1" parent="ZjrxR55pJWx2gAHyhsUh-79">
          <mxGeometry x="80" width="80" height="43" as="geometry">
            <mxRectangle width="80" height="43" as="alternateBounds" />
          </mxGeometry>
        </mxCell>
        <mxCell id="ZjrxR55pJWx2gAHyhsUh-120" value="&#xa;&lt;span style=&quot;forced-color-adjust: none; color: rgb(0, 0, 0); font-family: Helvetica; font-size: 12px; font-style: normal; font-variant-ligatures: normal; font-variant-caps: normal; font-weight: 400; letter-spacing: normal; orphans: 2; text-align: center; text-indent: 0px; text-transform: none; widows: 2; word-spacing: 0px; -webkit-text-stroke-width: 0px; white-space: normal; text-decoration-thickness: initial; text-decoration-style: initial; text-decoration-color: initial; background-color: rgb(251, 251, 251); float: none; display: inline !important;&quot;&gt;not null&lt;/span&gt;&lt;br style=&quot;forced-color-adjust: none; color: rgb(0, 0, 0); font-family: Helvetica; font-size: 12px; font-style: normal; font-variant-ligatures: normal; font-variant-caps: normal; font-weight: 400; letter-spacing: normal; orphans: 2; text-align: center; text-indent: 0px; text-transform: none; widows: 2; word-spacing: 0px; -webkit-text-stroke-width: 0px; white-space: normal; background-color: rgb(251, 251, 251); text-decoration-thickness: initial; text-decoration-style: initial; text-decoration-color: initial;&quot;&gt;&#xa;&#xa;" style="shape=partialRectangle;html=1;whiteSpace=wrap;connectable=0;strokeColor=inherit;overflow=hidden;fillColor=none;top=0;left=0;bottom=0;right=0;pointerEvents=1;" vertex="1" parent="ZjrxR55pJWx2gAHyhsUh-79">
          <mxGeometry x="160" width="120" height="43" as="geometry">
            <mxRectangle width="120" height="43" as="alternateBounds" />
          </mxGeometry>
        </mxCell>
        <mxCell id="ZjrxR55pJWx2gAHyhsUh-82" value="Anno di Immatricolazione" style="shape=partialRectangle;html=1;whiteSpace=wrap;connectable=0;strokeColor=inherit;overflow=hidden;fillColor=none;top=0;left=0;bottom=0;right=0;pointerEvents=1;" vertex="1" parent="ZjrxR55pJWx2gAHyhsUh-79">
          <mxGeometry x="280" width="120" height="43" as="geometry">
            <mxRectangle width="120" height="43" as="alternateBounds" />
          </mxGeometry>
        </mxCell>
        <mxCell id="ZjrxR55pJWx2gAHyhsUh-99" style="shape=tableRow;horizontal=0;startSize=0;swimlaneHead=0;swimlaneBody=0;strokeColor=inherit;top=0;left=0;bottom=0;right=0;collapsible=0;dropTarget=0;fillColor=none;points=[[0,0.5],[1,0.5]];portConstraint=eastwest;" vertex="1" parent="ZjrxR55pJWx2gAHyhsUh-1">
          <mxGeometry y="644" width="400" height="43" as="geometry" />
        </mxCell>
        <mxCell id="ZjrxR55pJWx2gAHyhsUh-100" value="Disponibilità" style="shape=partialRectangle;html=1;whiteSpace=wrap;connectable=0;strokeColor=inherit;overflow=hidden;fillColor=none;top=0;left=0;bottom=0;right=0;pointerEvents=1;" vertex="1" parent="ZjrxR55pJWx2gAHyhsUh-99">
          <mxGeometry width="80" height="43" as="geometry">
            <mxRectangle width="80" height="43" as="alternateBounds" />
          </mxGeometry>
        </mxCell>
        <mxCell id="ZjrxR55pJWx2gAHyhsUh-101" value="TINYINT" style="shape=partialRectangle;html=1;whiteSpace=wrap;connectable=0;strokeColor=inherit;overflow=hidden;fillColor=none;top=0;left=0;bottom=0;right=0;pointerEvents=1;" vertex="1" parent="ZjrxR55pJWx2gAHyhsUh-99">
          <mxGeometry x="80" width="80" height="43" as="geometry">
            <mxRectangle width="80" height="43" as="alternateBounds" />
          </mxGeometry>
        </mxCell>
        <mxCell id="ZjrxR55pJWx2gAHyhsUh-121" value="&#xa;&lt;span style=&quot;forced-color-adjust: none; color: rgb(0, 0, 0); font-family: Helvetica; font-size: 12px; font-style: normal; font-variant-ligatures: normal; font-variant-caps: normal; font-weight: 400; letter-spacing: normal; orphans: 2; text-align: center; text-indent: 0px; text-transform: none; widows: 2; word-spacing: 0px; -webkit-text-stroke-width: 0px; white-space: normal; text-decoration-thickness: initial; text-decoration-style: initial; text-decoration-color: initial; background-color: rgb(251, 251, 251); float: none; display: inline !important;&quot;&gt;not null&lt;/span&gt;&lt;br style=&quot;forced-color-adjust: none; color: rgb(0, 0, 0); font-family: Helvetica; font-size: 12px; font-style: normal; font-variant-ligatures: normal; font-variant-caps: normal; font-weight: 400; letter-spacing: normal; orphans: 2; text-align: center; text-indent: 0px; text-transform: none; widows: 2; word-spacing: 0px; -webkit-text-stroke-width: 0px; white-space: normal; background-color: rgb(251, 251, 251); text-decoration-thickness: initial; text-decoration-style: initial; text-decoration-color: initial;&quot;&gt;&#xa;&#xa;" style="shape=partialRectangle;html=1;whiteSpace=wrap;connectable=0;strokeColor=inherit;overflow=hidden;fillColor=none;top=0;left=0;bottom=0;right=0;pointerEvents=1;" vertex="1" parent="ZjrxR55pJWx2gAHyhsUh-99">
          <mxGeometry x="160" width="120" height="43" as="geometry">
            <mxRectangle width="120" height="43" as="alternateBounds" />
          </mxGeometry>
        </mxCell>
        <mxCell id="ZjrxR55pJWx2gAHyhsUh-102" value="Si/No" style="shape=partialRectangle;html=1;whiteSpace=wrap;connectable=0;strokeColor=inherit;overflow=hidden;fillColor=none;top=0;left=0;bottom=0;right=0;pointerEvents=1;" vertex="1" parent="ZjrxR55pJWx2gAHyhsUh-99">
          <mxGeometry x="280" width="120" height="43" as="geometry">
            <mxRectangle width="120" height="43" as="alternateBounds" />
          </mxGeometry>
        </mxCell>
        <mxCell id="ZjrxR55pJWx2gAHyhsUh-122" style="shape=tableRow;horizontal=0;startSize=0;swimlaneHead=0;swimlaneBody=0;strokeColor=inherit;top=0;left=0;bottom=0;right=0;collapsible=0;dropTarget=0;fillColor=none;points=[[0,0.5],[1,0.5]];portConstraint=eastwest;" vertex="1" parent="ZjrxR55pJWx2gAHyhsUh-1">
          <mxGeometry y="687" width="400" height="43" as="geometry" />
        </mxCell>
        <mxCell id="ZjrxR55pJWx2gAHyhsUh-123" value="Prezzo" style="shape=partialRectangle;html=1;whiteSpace=wrap;connectable=0;strokeColor=inherit;overflow=hidden;fillColor=none;top=0;left=0;bottom=0;right=0;pointerEvents=1;" vertex="1" parent="ZjrxR55pJWx2gAHyhsUh-122">
          <mxGeometry width="80" height="43" as="geometry">
            <mxRectangle width="80" height="43" as="alternateBounds" />
          </mxGeometry>
        </mxCell>
        <mxCell id="ZjrxR55pJWx2gAHyhsUh-124" value="Int" style="shape=partialRectangle;html=1;whiteSpace=wrap;connectable=0;strokeColor=inherit;overflow=hidden;fillColor=none;top=0;left=0;bottom=0;right=0;pointerEvents=1;" vertex="1" parent="ZjrxR55pJWx2gAHyhsUh-122">
          <mxGeometry x="80" width="80" height="43" as="geometry">
            <mxRectangle width="80" height="43" as="alternateBounds" />
          </mxGeometry>
        </mxCell>
        <mxCell id="ZjrxR55pJWx2gAHyhsUh-125" value="not null" style="shape=partialRectangle;html=1;whiteSpace=wrap;connectable=0;strokeColor=inherit;overflow=hidden;fillColor=none;top=0;left=0;bottom=0;right=0;pointerEvents=1;" vertex="1" parent="ZjrxR55pJWx2gAHyhsUh-122">
          <mxGeometry x="160" width="120" height="43" as="geometry">
            <mxRectangle width="120" height="43" as="alternateBounds" />
          </mxGeometry>
        </mxCell>
        <mxCell id="ZjrxR55pJWx2gAHyhsUh-126" value="Prezzo di Vendita" style="shape=partialRectangle;html=1;whiteSpace=wrap;connectable=0;strokeColor=inherit;overflow=hidden;fillColor=none;top=0;left=0;bottom=0;right=0;pointerEvents=1;" vertex="1" parent="ZjrxR55pJWx2gAHyhsUh-122">
          <mxGeometry x="280" width="120" height="43" as="geometry">
            <mxRectangle width="120" height="43" as="alternateBounds" />
          </mxGeometry>
        </mxCell>
      </root>
    </mxGraphModel>
  </diagram>
</mxfile>
